<?xml version="1.0" encoding="utf-8"?>
<!-- Generator: Adobe Illustrator 22.0.1, SVG Export Plug-In . SVG Version: 6.00 Build 0)  -->
<svg version="1.1" id="Layer_1" xmlns="http://www.w3.org/2000/svg" xmlns:xlink="http://www.w3.org/1999/xlink" x="0px" y="0px"
	 viewBox="0 0 255.1 141.7" style="enable-background:new 0 0 255.1 141.7;" xml:space="preserve">
<style type="text/css">
	.st0{display:none;fill:#414042;}
	.st1{display:none;}
	.st2{display:inline;}
	.st3{display:inline;clip-path:url(#SVGID_2_);}
	.st4{font-family:'MidpointPro-Regular';}
	.st5{font-size:20.3841px;}
	.st6{display:inline;fill:#FFFFFF;}
	.st7{font-family:'ArialMT';}
	.st8{font-size:6.2183px;}
	.st9{font-family:'Milliard-BookDEMO';}
	.st10{font-size:13px;}
	.st11{font-size:15px;}
	.st12{clip-path:url(#SVGID_4_);}
</style>
<rect x="289.2" y="-14.3" class="st0" width="283.7" height="170"/>
<rect x="-14.8" y="-14.3" class="st0" width="283.7" height="170"/>
<g class="st1">
	<defs>
		<circle id="SVGID_1_" cx="429" cy="57.2" r="43.6"/>
	</defs>
	<clipPath id="SVGID_2_" class="st2">
		<use xlink:href="#SVGID_1_"  style="overflow:visible;"/>
	</clipPath>
	<g class="st3">
		<g>
			<g>
				<g>
					<polygon points="411.5,98.6 403,98.6 403,38.5 411.5,44 					"/>
					<polygon points="430.1,29.6 403,38.5 411.5,44 					"/>
					<polygon points="427.5,49.6 408.6,57.8 411,62.1 					"/>
					<polygon points="398.7,91.1 390.2,91.1 390.2,65.7 398.7,71.2 					"/>
					<polygon points="400.9,61.3 400.9,69.6 398.7,71.2 390.2,65.7 					"/>
				</g>
				<polygon points="431.6,29.7 454.3,38.9 449.9,42.3 				"/>
				<polygon points="457.3,93 461.6,93 461.6,75.6 457.3,78.7 				"/>
				<polygon points="448.2,67.7 433.6,59.1 448.2,71.2 				"/>
				<polygon points="458,79.4 461.6,75.6 450.4,69 450.7,73.1 457.3,78.7 				"/>
				<polygon points="450,99 454.3,99 454.3,38.9 449.9,42.3 				"/>
			</g>
		</g>
		<text transform="matrix(1 0 0 1 392.155 122.9704)" class="st4 st5">RAQMU</text>
	</g>
</g>
<text transform="matrix(1 0 0 1 27.5678 119.9702)" class="st1 st4 st5">RAQMU</text>
<g class="st1">
	<text transform="matrix(1 0 0 1 175.5068 118.5927)" class="st6 st7 st8">01122442266</text>
	<text transform="matrix(1 0 0 1 175.5078 100.7207)" class="st6 st7 st8">0225424215</text>
	<text transform="matrix(1 0 0 1 175.5068 109.6572)" class="st6 st7 st8">k.aboali@raqmu.com</text>
</g>
<text transform="matrix(1 0 0 1 126.2698 103.8655)" class="st1"><tspan x="0" y="0" class="st6 st9 st10">Kareem</tspan><tspan x="-5.4" y="16.5" class="st6 st9 st11">Abo-Ali</tspan></text>
<g>
	<defs>
		<circle id="SVGID_3_" cx="127.6" cy="70.9" r="43.6"/>
	</defs>
	<clipPath id="SVGID_4_">
		<use xlink:href="#SVGID_3_"  style="overflow:visible;"/>
	</clipPath>
	<g class="st12">
		<polygon points="110.1,112.3 101.5,112.3 101.5,52.2 110.1,57.7 		"/>
		<polygon points="128.7,43.3 101.5,52.2 110.1,57.7 		"/>
		<polygon points="126.1,63.3 107.1,71.4 109.6,75.8 		"/>
		<polygon points="97.2,104.8 88.8,104.8 88.8,79.4 97.2,84.9 		"/>
		<polygon points="99.5,75 99.5,83.3 97.2,84.9 88.8,79.4 		"/>
		<polygon points="130.2,43.4 152.9,52.6 148.5,56 		"/>
		<polygon points="155.9,106.7 160.2,106.7 160.2,89.3 155.9,92.4 		"/>
		<polygon points="146.8,81.4 132.1,72.8 146.7,84.9 		"/>
		<polygon points="156.5,93.1 160.2,89.3 148.9,82.7 149.3,86.8 155.9,92.4 		"/>
		<polygon points="148.6,112.7 152.9,112.7 152.9,52.6 148.5,56 		"/>
	</g>
</g>
<text transform="matrix(1 0 0 1 396.5906 119.9706)" class="st1 st4 st5">RAQMU</text>
</svg>
