<svg xmlns="http://www.w3.org/2000/svg" xmlns:xlink="http://www.w3.org/1999/xlink" version="1.1" style="enable-background:new 0 0 255.1 141.7;" xml:space="preserve" width="48.54167010221215" height="45.25000173846877"><rect id="backgroundrect" width="100%" height="100%" x="0" y="0" fill="none" stroke="none" style="" class=""/>









<g class="currentLayer" style=""><title>Layer 1</title><g id="svg_28" class="">
	<defs transform="translate(-0.5208333134651184,0) translate(-0.5208333134651184,0) translate(-0.5208333134651184,0) translate(-0.5208333134651184,0) translate(-85.41666412353516,-41.666664123535156) translate(88.80000305175781,43.29999923706055) scale(0.6247598528862) translate(-88.80000305175781,-43.29999923706055) ">
		<circle id="SVGID_3_" cx="127.5999984741211" cy="70.9000015258789" r="43.599998474121094"/>
	</defs>
	<clipPath id="SVGID_4_" transform="translate(-0.5208333134651184,0) translate(-0.5208333134651184,0) translate(-0.5208333134651184,0) translate(-0.5208333134651184,0) translate(-85.41666412353516,-41.666664123535156) translate(88.80000305175781,43.29999923706055) scale(0.6247598528862) translate(-88.80000305175781,-43.29999923706055) ">
		<use xlink:href="#SVGID_3_" style="overflow:visible;" id="svg_29"/>
	</clipPath>
	<g class="st12" id="svg_30">
		<polygon points="14.607386291027069,44.74176788330078 9.234454810619354,44.74176788330078 9.234454810619354,7.193698883056641 14.607386291027069,10.629878997802734 " id="svg_31"/>
		<polygon points="26.227921187877655,1.6333351135253906 9.234454810619354,7.193698883056641 14.607386291027069,10.629878997802734 " id="svg_32"/>
		<polygon points="24.603546798229218,14.128532409667969 12.733112037181854,19.1890869140625 14.295009315013885,21.938034057617188 " id="svg_33"/>
		<polygon points="6.547983825206757,40.056068420410156 1.300005853176117,40.056068420410156 1.300005853176117,24.187164306640625 6.547983825206757,27.62334442138672 " id="svg_34"/>
		<polygon points="7.984935462474823,21.43822479248047 7.984935462474823,26.623733520507812 6.547983825206757,27.62334442138672 1.300005853176117,24.187164306640625 " id="svg_35"/>
		<polygon points="27.165054976940155,1.6958122253417969 41.34711331129074,7.443599700927734 38.598173797130585,9.567787170410156 " id="svg_36"/>
		<polygon points="43.2213961482048,41.24311065673828 45.90785855054855,41.24311065673828 45.90785855054855,30.372291564941406 43.2213961482048,32.309043884277344 " id="svg_37"/>
		<polygon points="37.53607815504074,25.436683654785156 28.35210484266281,20.063751220703125 37.473601043224335,27.62334442138672 " id="svg_38"/>
		<polygon points="43.59624356031418,32.746376037597656 45.90785855054855,30.372291564941406 38.84807461500168,26.248870849609375 39.0979830622673,28.810394287109375 43.2213961482048,32.309043884277344 " id="svg_39"/>
		<polygon points="38.66065090894699,44.991668701171875 41.34711331129074,44.991668701171875 41.34711331129074,7.443599700927734 38.598173797130585,9.567787170410156 " id="svg_40"/>
	</g>
</g></g></svg>