<svg xmlns="http://www.w3.org/2000/svg" xmlns:xlink="http://www.w3.org/1999/xlink" version="1.1" style="enable-background:new 0 0 255.1 141.7;" xml:space="preserve" width="74.54167010221204" height="73.3750016142925"><rect id="backgroundrect" width="100%" height="100%" x="0" y="0" fill="none" stroke="none" style="" class=""/>









<g class="currentLayer" style=""><title>Layer 1</title><g id="svg_28" class="" fill-opacity="1" fill="#bcbcbc">
	<defs transform="translate(-86.45832824707031,-40.104164123535156) ">
		<circle id="SVGID_3_" cx="127.5999984741211" cy="70.9000015258789" r="43.599998474121094" fill="#bcbcbc"/>
	</defs>
	<clipPath id="SVGID_4_" transform="translate(-86.45832824707031,-40.104164123535156) ">
		<use xlink:href="#SVGID_3_" style="overflow:visible;" id="svg_29"/>
	</clipPath>
	<g class="st12" id="svg_30" fill="#bcbcbc">
		<polygon points="23.64167022705078,72.19583892822266 15.041671752929688,72.19583892822266 15.041671752929688,12.095836639404297 23.64167022705078,17.595836639404297 " id="svg_31" fill="#bcbcbc"/>
		<polygon points="42.241668701171875,3.1958351135253906 15.041671752929688,12.095836639404297 23.64167022705078,17.595836639404297 " id="svg_32" fill="#bcbcbc"/>
		<polygon points="39.64167022705078,23.19583511352539 20.64167022705078,31.29583740234375 23.14167022705078,35.695838928222656 " id="svg_33" fill="#bcbcbc"/>
		<polygon points="10.741668701171875,64.69583892822266 2.3416748046875,64.69583892822266 2.3416748046875,39.29583740234375 10.741668701171875,44.79583740234375 " id="svg_34" fill="#bcbcbc"/>
		<polygon points="13.041671752929688,34.895835876464844 13.041671752929688,43.195838928222656 10.741668701171875,44.79583740234375 2.3416748046875,39.29583740234375 " id="svg_35" fill="#bcbcbc"/>
		<polygon points="43.741668701171875,3.29583740234375 66.44166564941406,12.495834350585938 62.04167175292969,15.895835876464844 " id="svg_36" fill="#bcbcbc"/>
		<polygon points="69.44166564941406,66.59583282470703 73.74166870117188,66.59583282470703 73.74166870117188,49.195838928222656 69.44166564941406,52.29583740234375 " id="svg_37" fill="#bcbcbc"/>
		<polygon points="60.3416748046875,41.29583740234375 45.64167785644531,32.695838928222656 60.241668701171875,44.79583740234375 " id="svg_38" fill="#bcbcbc"/>
		<polygon points="70.04167175292969,52.99583435058594 73.74166870117188,49.195838928222656 62.44166564941406,42.59583282470703 62.8416748046875,46.695838928222656 69.44166564941406,52.29583740234375 " id="svg_39" fill="#bcbcbc"/>
		<polygon points="62.14167785644531,72.59583282470703 66.44166564941406,72.59583282470703 66.44166564941406,12.495834350585938 62.04167175292969,15.895835876464844 " id="svg_40" fill="#bcbcbc"/>
	</g>
</g></g></svg>