<svg xmlns="http://www.w3.org/2000/svg" xmlns:xlink="http://www.w3.org/1999/xlink" width="619" height="255" viewBox="0 0 619 255">
  <defs>
    <style>
      .cls-1, .cls-3 {
        fill: none;
      }

      .cls-2 {
        opacity: 0.15;
        clip-path: url(#clip-path);
      }

      .cls-3 {
        stroke: #707070;
        stroke-width: 0.5px;
        stroke-dasharray: 5 2;
      }
    </style>
    <clipPath id="clip-path">
      <rect class="cls-1" width="619" height="255"/>
    </clipPath>
  </defs>
  <g id="Repeat_Grid_4" data-name="Repeat Grid 4" class="cls-2">
    <g transform="translate(-365.5 -224.5)">
      <line id="Line_29" data-name="Line 29" class="cls-3" y2="156" transform="translate(365.5 224.5)"/>
    </g>
    <g transform="translate(-352.5 -224.5)">
      <line id="Line_29-2" data-name="Line 29" class="cls-3" y2="156" transform="translate(365.5 224.5)"/>
    </g>
    <g transform="translate(-339.5 -224.5)">
      <line id="Line_29-3" data-name="Line 29" class="cls-3" y2="156" transform="translate(365.5 224.5)"/>
    </g>
    <g transform="translate(-326.5 -224.5)">
      <line id="Line_29-4" data-name="Line 29" class="cls-3" y2="156" transform="translate(365.5 224.5)"/>
    </g>
    <g transform="translate(-313.5 -224.5)">
      <line id="Line_29-5" data-name="Line 29" class="cls-3" y2="156" transform="translate(365.5 224.5)"/>
    </g>
    <g transform="translate(-300.5 -224.5)">
      <line id="Line_29-6" data-name="Line 29" class="cls-3" y2="156" transform="translate(365.5 224.5)"/>
    </g>
    <g transform="translate(-287.5 -224.5)">
      <line id="Line_29-7" data-name="Line 29" class="cls-3" y2="156" transform="translate(365.5 224.5)"/>
    </g>
    <g transform="translate(-274.5 -224.5)">
      <line id="Line_29-8" data-name="Line 29" class="cls-3" y2="156" transform="translate(365.5 224.5)"/>
    </g>
    <g transform="translate(-261.5 -224.5)">
      <line id="Line_29-9" data-name="Line 29" class="cls-3" y2="156" transform="translate(365.5 224.5)"/>
    </g>
    <g transform="translate(-248.5 -224.5)">
      <line id="Line_29-10" data-name="Line 29" class="cls-3" y2="156" transform="translate(365.5 224.5)"/>
    </g>
    <g transform="translate(-235.5 -224.5)">
      <line id="Line_29-11" data-name="Line 29" class="cls-3" y2="156" transform="translate(365.5 224.5)"/>
    </g>
    <g transform="translate(-222.5 -224.5)">
      <line id="Line_29-12" data-name="Line 29" class="cls-3" y2="156" transform="translate(365.5 224.5)"/>
    </g>
    <g transform="translate(-209.5 -224.5)">
      <line id="Line_29-13" data-name="Line 29" class="cls-3" y2="156" transform="translate(365.5 224.5)"/>
    </g>
    <g transform="translate(-196.5 -224.5)">
      <line id="Line_29-14" data-name="Line 29" class="cls-3" y2="156" transform="translate(365.5 224.5)"/>
    </g>
    <g transform="translate(-183.5 -224.5)">
      <line id="Line_29-15" data-name="Line 29" class="cls-3" y2="156" transform="translate(365.5 224.5)"/>
    </g>
    <g transform="translate(-170.5 -224.5)">
      <line id="Line_29-16" data-name="Line 29" class="cls-3" y2="156" transform="translate(365.5 224.5)"/>
    </g>
    <g transform="translate(-157.5 -224.5)">
      <line id="Line_29-17" data-name="Line 29" class="cls-3" y2="156" transform="translate(365.5 224.5)"/>
    </g>
    <g transform="translate(-144.5 -224.5)">
      <line id="Line_29-18" data-name="Line 29" class="cls-3" y2="156" transform="translate(365.5 224.5)"/>
    </g>
    <g transform="translate(-131.5 -224.5)">
      <line id="Line_29-19" data-name="Line 29" class="cls-3" y2="156" transform="translate(365.5 224.5)"/>
    </g>
    <g transform="translate(-118.5 -224.5)">
      <line id="Line_29-20" data-name="Line 29" class="cls-3" y2="156" transform="translate(365.5 224.5)"/>
    </g>
    <g transform="translate(-105.5 -224.5)">
      <line id="Line_29-21" data-name="Line 29" class="cls-3" y2="156" transform="translate(365.5 224.5)"/>
    </g>
    <g transform="translate(-92.5 -224.5)">
      <line id="Line_29-22" data-name="Line 29" class="cls-3" y2="156" transform="translate(365.5 224.5)"/>
    </g>
    <g transform="translate(-79.5 -224.5)">
      <line id="Line_29-23" data-name="Line 29" class="cls-3" y2="156" transform="translate(365.5 224.5)"/>
    </g>
    <g transform="translate(-66.5 -224.5)">
      <line id="Line_29-24" data-name="Line 29" class="cls-3" y2="156" transform="translate(365.5 224.5)"/>
    </g>
    <g transform="translate(-53.5 -224.5)">
      <line id="Line_29-25" data-name="Line 29" class="cls-3" y2="156" transform="translate(365.5 224.5)"/>
    </g>
    <g transform="translate(-40.5 -224.5)">
      <line id="Line_29-26" data-name="Line 29" class="cls-3" y2="156" transform="translate(365.5 224.5)"/>
    </g>
    <g transform="translate(-27.5 -224.5)">
      <line id="Line_29-27" data-name="Line 29" class="cls-3" y2="156" transform="translate(365.5 224.5)"/>
    </g>
    <g transform="translate(-14.5 -224.5)">
      <line id="Line_29-28" data-name="Line 29" class="cls-3" y2="156" transform="translate(365.5 224.5)"/>
    </g>
    <g transform="translate(-1.5 -224.5)">
      <line id="Line_29-29" data-name="Line 29" class="cls-3" y2="156" transform="translate(365.5 224.5)"/>
    </g>
    <g transform="translate(11.5 -224.5)">
      <line id="Line_29-30" data-name="Line 29" class="cls-3" y2="156" transform="translate(365.5 224.5)"/>
    </g>
    <g transform="translate(24.5 -224.5)">
      <line id="Line_29-31" data-name="Line 29" class="cls-3" y2="156" transform="translate(365.5 224.5)"/>
    </g>
    <g transform="translate(37.5 -224.5)">
      <line id="Line_29-32" data-name="Line 29" class="cls-3" y2="156" transform="translate(365.5 224.5)"/>
    </g>
    <g transform="translate(50.5 -224.5)">
      <line id="Line_29-33" data-name="Line 29" class="cls-3" y2="156" transform="translate(365.5 224.5)"/>
    </g>
    <g transform="translate(63.5 -224.5)">
      <line id="Line_29-34" data-name="Line 29" class="cls-3" y2="156" transform="translate(365.5 224.5)"/>
    </g>
    <g transform="translate(76.5 -224.5)">
      <line id="Line_29-35" data-name="Line 29" class="cls-3" y2="156" transform="translate(365.5 224.5)"/>
    </g>
    <g transform="translate(89.5 -224.5)">
      <line id="Line_29-36" data-name="Line 29" class="cls-3" y2="156" transform="translate(365.5 224.5)"/>
    </g>
    <g transform="translate(102.5 -224.5)">
      <line id="Line_29-37" data-name="Line 29" class="cls-3" y2="156" transform="translate(365.5 224.5)"/>
    </g>
    <g transform="translate(115.5 -224.5)">
      <line id="Line_29-38" data-name="Line 29" class="cls-3" y2="156" transform="translate(365.5 224.5)"/>
    </g>
    <g transform="translate(128.5 -224.5)">
      <line id="Line_29-39" data-name="Line 29" class="cls-3" y2="156" transform="translate(365.5 224.5)"/>
    </g>
    <g transform="translate(141.5 -224.5)">
      <line id="Line_29-40" data-name="Line 29" class="cls-3" y2="156" transform="translate(365.5 224.5)"/>
    </g>
    <g transform="translate(154.5 -224.5)">
      <line id="Line_29-41" data-name="Line 29" class="cls-3" y2="156" transform="translate(365.5 224.5)"/>
    </g>
    <g transform="translate(167.5 -224.5)">
      <line id="Line_29-42" data-name="Line 29" class="cls-3" y2="156" transform="translate(365.5 224.5)"/>
    </g>
    <g transform="translate(180.5 -224.5)">
      <line id="Line_29-43" data-name="Line 29" class="cls-3" y2="156" transform="translate(365.5 224.5)"/>
    </g>
    <g transform="translate(193.5 -224.5)">
      <line id="Line_29-44" data-name="Line 29" class="cls-3" y2="156" transform="translate(365.5 224.5)"/>
    </g>
    <g transform="translate(206.5 -224.5)">
      <line id="Line_29-45" data-name="Line 29" class="cls-3" y2="156" transform="translate(365.5 224.5)"/>
    </g>
    <g transform="translate(219.5 -224.5)">
      <line id="Line_29-46" data-name="Line 29" class="cls-3" y2="156" transform="translate(365.5 224.5)"/>
    </g>
    <g transform="translate(232.5 -224.5)">
      <line id="Line_29-47" data-name="Line 29" class="cls-3" y2="156" transform="translate(365.5 224.5)"/>
    </g>
    <g transform="translate(245.5 -224.5)">
      <line id="Line_29-48" data-name="Line 29" class="cls-3" y2="156" transform="translate(365.5 224.5)"/>
    </g>
    <g transform="translate(-365.5 -67.5)">
      <line id="Line_29-49" data-name="Line 29" class="cls-3" y2="156" transform="translate(365.5 224.5)"/>
    </g>
    <g transform="translate(-352.5 -67.5)">
      <line id="Line_29-50" data-name="Line 29" class="cls-3" y2="156" transform="translate(365.5 224.5)"/>
    </g>
    <g transform="translate(-339.5 -67.5)">
      <line id="Line_29-51" data-name="Line 29" class="cls-3" y2="156" transform="translate(365.5 224.5)"/>
    </g>
    <g transform="translate(-326.5 -67.5)">
      <line id="Line_29-52" data-name="Line 29" class="cls-3" y2="156" transform="translate(365.5 224.5)"/>
    </g>
    <g transform="translate(-313.5 -67.5)">
      <line id="Line_29-53" data-name="Line 29" class="cls-3" y2="156" transform="translate(365.5 224.5)"/>
    </g>
    <g transform="translate(-300.5 -67.5)">
      <line id="Line_29-54" data-name="Line 29" class="cls-3" y2="156" transform="translate(365.5 224.5)"/>
    </g>
    <g transform="translate(-287.5 -67.5)">
      <line id="Line_29-55" data-name="Line 29" class="cls-3" y2="156" transform="translate(365.5 224.5)"/>
    </g>
    <g transform="translate(-274.5 -67.5)">
      <line id="Line_29-56" data-name="Line 29" class="cls-3" y2="156" transform="translate(365.5 224.5)"/>
    </g>
    <g transform="translate(-261.5 -67.5)">
      <line id="Line_29-57" data-name="Line 29" class="cls-3" y2="156" transform="translate(365.5 224.5)"/>
    </g>
    <g transform="translate(-248.5 -67.5)">
      <line id="Line_29-58" data-name="Line 29" class="cls-3" y2="156" transform="translate(365.5 224.5)"/>
    </g>
    <g transform="translate(-235.5 -67.5)">
      <line id="Line_29-59" data-name="Line 29" class="cls-3" y2="156" transform="translate(365.5 224.5)"/>
    </g>
    <g transform="translate(-222.5 -67.5)">
      <line id="Line_29-60" data-name="Line 29" class="cls-3" y2="156" transform="translate(365.5 224.5)"/>
    </g>
    <g transform="translate(-209.5 -67.5)">
      <line id="Line_29-61" data-name="Line 29" class="cls-3" y2="156" transform="translate(365.5 224.5)"/>
    </g>
    <g transform="translate(-196.5 -67.5)">
      <line id="Line_29-62" data-name="Line 29" class="cls-3" y2="156" transform="translate(365.5 224.5)"/>
    </g>
    <g transform="translate(-183.5 -67.5)">
      <line id="Line_29-63" data-name="Line 29" class="cls-3" y2="156" transform="translate(365.5 224.5)"/>
    </g>
    <g transform="translate(-170.5 -67.5)">
      <line id="Line_29-64" data-name="Line 29" class="cls-3" y2="156" transform="translate(365.5 224.5)"/>
    </g>
    <g transform="translate(-157.5 -67.5)">
      <line id="Line_29-65" data-name="Line 29" class="cls-3" y2="156" transform="translate(365.5 224.5)"/>
    </g>
    <g transform="translate(-144.5 -67.5)">
      <line id="Line_29-66" data-name="Line 29" class="cls-3" y2="156" transform="translate(365.5 224.5)"/>
    </g>
    <g transform="translate(-131.5 -67.5)">
      <line id="Line_29-67" data-name="Line 29" class="cls-3" y2="156" transform="translate(365.5 224.5)"/>
    </g>
    <g transform="translate(-118.5 -67.5)">
      <line id="Line_29-68" data-name="Line 29" class="cls-3" y2="156" transform="translate(365.5 224.5)"/>
    </g>
    <g transform="translate(-105.5 -67.5)">
      <line id="Line_29-69" data-name="Line 29" class="cls-3" y2="156" transform="translate(365.5 224.5)"/>
    </g>
    <g transform="translate(-92.5 -67.5)">
      <line id="Line_29-70" data-name="Line 29" class="cls-3" y2="156" transform="translate(365.5 224.5)"/>
    </g>
    <g transform="translate(-79.5 -67.5)">
      <line id="Line_29-71" data-name="Line 29" class="cls-3" y2="156" transform="translate(365.5 224.5)"/>
    </g>
    <g transform="translate(-66.5 -67.5)">
      <line id="Line_29-72" data-name="Line 29" class="cls-3" y2="156" transform="translate(365.5 224.5)"/>
    </g>
    <g transform="translate(-53.5 -67.5)">
      <line id="Line_29-73" data-name="Line 29" class="cls-3" y2="156" transform="translate(365.5 224.5)"/>
    </g>
    <g transform="translate(-40.5 -67.5)">
      <line id="Line_29-74" data-name="Line 29" class="cls-3" y2="156" transform="translate(365.5 224.5)"/>
    </g>
    <g transform="translate(-27.5 -67.5)">
      <line id="Line_29-75" data-name="Line 29" class="cls-3" y2="156" transform="translate(365.5 224.5)"/>
    </g>
    <g transform="translate(-14.5 -67.5)">
      <line id="Line_29-76" data-name="Line 29" class="cls-3" y2="156" transform="translate(365.5 224.5)"/>
    </g>
    <g transform="translate(-1.5 -67.5)">
      <line id="Line_29-77" data-name="Line 29" class="cls-3" y2="156" transform="translate(365.5 224.5)"/>
    </g>
    <g transform="translate(11.5 -67.5)">
      <line id="Line_29-78" data-name="Line 29" class="cls-3" y2="156" transform="translate(365.5 224.5)"/>
    </g>
    <g transform="translate(24.5 -67.5)">
      <line id="Line_29-79" data-name="Line 29" class="cls-3" y2="156" transform="translate(365.5 224.5)"/>
    </g>
    <g transform="translate(37.5 -67.5)">
      <line id="Line_29-80" data-name="Line 29" class="cls-3" y2="156" transform="translate(365.5 224.5)"/>
    </g>
    <g transform="translate(50.5 -67.5)">
      <line id="Line_29-81" data-name="Line 29" class="cls-3" y2="156" transform="translate(365.5 224.5)"/>
    </g>
    <g transform="translate(63.5 -67.5)">
      <line id="Line_29-82" data-name="Line 29" class="cls-3" y2="156" transform="translate(365.5 224.5)"/>
    </g>
    <g transform="translate(76.5 -67.5)">
      <line id="Line_29-83" data-name="Line 29" class="cls-3" y2="156" transform="translate(365.5 224.5)"/>
    </g>
    <g transform="translate(89.5 -67.5)">
      <line id="Line_29-84" data-name="Line 29" class="cls-3" y2="156" transform="translate(365.5 224.5)"/>
    </g>
    <g transform="translate(102.5 -67.5)">
      <line id="Line_29-85" data-name="Line 29" class="cls-3" y2="156" transform="translate(365.5 224.5)"/>
    </g>
    <g transform="translate(115.5 -67.5)">
      <line id="Line_29-86" data-name="Line 29" class="cls-3" y2="156" transform="translate(365.5 224.5)"/>
    </g>
    <g transform="translate(128.5 -67.5)">
      <line id="Line_29-87" data-name="Line 29" class="cls-3" y2="156" transform="translate(365.5 224.5)"/>
    </g>
    <g transform="translate(141.5 -67.5)">
      <line id="Line_29-88" data-name="Line 29" class="cls-3" y2="156" transform="translate(365.5 224.5)"/>
    </g>
    <g transform="translate(154.5 -67.5)">
      <line id="Line_29-89" data-name="Line 29" class="cls-3" y2="156" transform="translate(365.5 224.5)"/>
    </g>
    <g transform="translate(167.5 -67.5)">
      <line id="Line_29-90" data-name="Line 29" class="cls-3" y2="156" transform="translate(365.5 224.5)"/>
    </g>
    <g transform="translate(180.5 -67.5)">
      <line id="Line_29-91" data-name="Line 29" class="cls-3" y2="156" transform="translate(365.5 224.5)"/>
    </g>
    <g transform="translate(193.5 -67.5)">
      <line id="Line_29-92" data-name="Line 29" class="cls-3" y2="156" transform="translate(365.5 224.5)"/>
    </g>
    <g transform="translate(206.5 -67.5)">
      <line id="Line_29-93" data-name="Line 29" class="cls-3" y2="156" transform="translate(365.5 224.5)"/>
    </g>
    <g transform="translate(219.5 -67.5)">
      <line id="Line_29-94" data-name="Line 29" class="cls-3" y2="156" transform="translate(365.5 224.5)"/>
    </g>
    <g transform="translate(232.5 -67.5)">
      <line id="Line_29-95" data-name="Line 29" class="cls-3" y2="156" transform="translate(365.5 224.5)"/>
    </g>
    <g transform="translate(245.5 -67.5)">
      <line id="Line_29-96" data-name="Line 29" class="cls-3" y2="156" transform="translate(365.5 224.5)"/>
    </g>
  </g>
</svg>
